# Blender v2.79 (sub 0) OBJ File: ''
# www.blender.org
mtllib extruded_cube.mtl
o Cube
v 0.487900 -0.493049 -0.465429
v 0.487900 -0.493049 1.534571
v -1.512100 -0.493049 1.534570
v -1.512099 -0.493049 -0.465430
v 0.487901 1.506951 -0.465429
v 0.487900 1.506951 1.534571
v -1.512100 1.506951 1.534570
v -1.512100 1.506951 -0.465429
v 0.487900 1.152896 1.062745
v 0.487900 0.375557 0.962651
v 0.487900 0.345561 0.073214
v 0.487900 1.184090 0.461207
v 0.487900 -0.493049 -0.465429
v 0.487900 -0.493049 1.534571
v -1.512100 -0.493049 1.534570
v -1.512099 -0.493049 -0.465430
v 0.487901 1.506951 -0.465429
v 0.487900 1.506951 1.534571
v -1.512100 1.506951 1.534570
v -1.512100 1.506951 -0.465429
v 0.487900 1.152896 1.062745
v 0.487900 0.375557 0.962651
v 0.487900 0.345561 0.073214
v 0.487900 1.184090 0.461207
v 0.487900 -0.493049 -0.465429
v 0.487900 -0.493049 1.534571
v -1.512100 -0.493049 1.534570
v -1.512099 -0.493049 -0.465430
v 0.487901 1.506951 -0.465429
v 0.487900 1.506951 1.534571
v -1.512100 1.506951 1.534570
v -1.512100 1.506951 -0.465429
v 0.487900 1.152896 1.062745
v 0.487900 0.375557 0.962651
v 0.487900 0.345561 0.073214
v 0.487900 1.184090 0.461207
v 1.420455 1.152896 1.062746
v 1.420455 0.375557 0.962652
v 1.420455 0.345561 0.073215
v 1.420455 1.184090 0.461207
vn 0.0000 1.0000 -0.0000
vn 0.0000 -1.0000 -0.0000
vn -1.0000 0.0000 -0.0000
vn 0.0000 0.0000 -1.0000
vn 1.0000 0.0000 0.0000
vn -0.0000 -0.0000 1.0000
vn 0.0000 0.4199 -0.9076
vn -0.0000 -0.1277 0.9918
vn -0.0000 0.9987 0.0518
vn -0.0000 -0.9994 0.0337
usemtl Material
s off
f 1//1 4//1 3//1 2//1
f 5//2 6//2 7//2 8//2
f 1//3 11//3 12//3 9//3 6//3 5//3
f 2//4 3//4 7//4 6//4
f 3//5 4//5 8//5 7//5
f 5//6 8//6 4//6 1//6
f 13//1 16//1 15//1 14//1
f 11//3 10//3 9//3 12//3
f 10//3 11//3 1//3 2//3 6//3 9//3
f 17//2 18//2 19//2 20//2
f 13//3 23//3 24//3 21//3 18//3 17//3
f 14//4 15//4 19//4 18//4
f 15//5 16//5 20//5 19//5
f 17//6 20//6 16//6 13//6
f 23//3 22//3 21//3 24//3
f 22//3 23//3 13//3 14//3 18//3 21//3
f 25//2 26//2 27//2 28//2
f 29//1 32//1 31//1 30//1
f 25//5 29//5 30//5 33//5 36//5 35//5
f 26//6 30//6 31//6 27//6
f 27//3 31//3 32//3 28//3
f 29//4 25//4 28//4 32//4
f 35//7 36//7 40//7 39//7
f 34//5 33//5 30//5 26//5 25//5 35//5
f 39//5 40//5 37//5 38//5
f 33//8 34//8 38//8 37//8
f 36//9 33//9 37//9 40//9
f 34//10 35//10 39//10 38//10
