# Blender v2.79 (sub 0) OBJ File: ''
# www.blender.org
mtllib kucg.mtl
o Cube
v 1.000000 -1.000000 -1.000000
v 1.000000 -1.000000 1.000000
v -1.000000 -1.000000 1.000000
v -1.000000 -1.000000 -1.000000
v 1.000000 1.000000 -0.999999
v 0.999999 1.000000 1.000001
v -1.000000 1.000000 1.000000
v -1.000000 1.000000 -1.000000
v -0.554859 1.482498 0.350101
v -0.554858 0.679223 -0.594990
v 0.360453 1.482498 -0.594990
vn 0.0000 -1.0000 0.0000
vn 0.2811 0.9185 0.2782
vn 1.0000 0.0000 0.0000
vn -0.0000 -0.0000 1.0000
vn -0.9723 0.1694 -0.1612
vn -0.1493 0.1553 -0.9765
vn 0.3983 -0.4538 -0.7971
vn -0.7513 -0.5029 0.4274
vn -0.2571 0.9338 -0.2490
usemtl Material
s off
f 1//1 2//1 3//1 4//1
f 5//2 11//2 9//2 7//2 6//2
f 1//3 5//3 6//3 2//3
f 2//4 6//4 7//4 3//4
f 3//5 7//5 9//5 10//5 4//5
f 5//6 1//6 4//6 10//6 11//6
f 11//7 10//7 8//7
f 10//8 9//8 8//8
f 9//9 11//9 8//9
